<svg width="19" height="18" viewBox="0 0 19 18" fill="none" xmlns="http://www.w3.org/2000/svg">
<path d="M18 7.33008H1.30469M13.3621 0.652344V3.99121M5.94267 0.652344V3.99121M5.75677 17.3477H13.5479C15.1061 17.3477 15.8853 17.3476 16.4807 17.0751C17.0039 16.8347 17.4301 16.4521 17.6973 15.9803C18 15.4443 18 14.7431 18 13.3406V6.32832C18 4.92586 18 4.22462 17.6973 3.68868C17.4301 3.21785 17.0039 2.8342 16.4807 2.59478C15.8853 2.3213 15.1061 2.32129 13.5479 2.32129H5.75677C4.19854 2.32129 3.41945 2.3213 2.82398 2.59478C2.30086 2.8342 1.87457 3.21785 1.60855 3.68868C1.3047 4.22462 1.30469 4.92586 1.30469 6.32832V13.3406C1.30469 14.7431 1.3047 15.4443 1.60855 15.9803C1.87457 16.4521 2.30086 16.8347 2.82398 17.0751C3.41945 17.3476 4.19854 17.3477 5.75677 17.3477Z" stroke="#212B36" stroke-width="0.927519" stroke-linecap="round" stroke-linejoin="round"/>
</svg>
